<mxfile host="app.diagrams.net" modified="2022-05-10T11:56:20.898Z" agent="5.0 (Windows NT 10.0; Win64; x64) AppleWebKit/537.36 (KHTML, like Gecko) Chrome/101.0.4951.54 Safari/537.36" etag="CevJ8JeQruizG2MnfK_h" version="18.0.2" type="github" pages="2">
  <diagram id="mAz8v17iIhoyXriaT5d3" name="Страница 1">
    <mxGraphModel dx="1422" dy="1931" grid="1" gridSize="10" guides="1" tooltips="1" connect="1" arrows="1" fold="1" page="1" pageScale="1" pageWidth="827" pageHeight="1169" math="0" shadow="0">
      <root>
        <mxCell id="0" />
        <mxCell id="1" parent="0" />
        <mxCell id="2XdhRBV7KyqIKCgZsZZ_-1" value="Начало&lt;br&gt;/start" style="ellipse;whiteSpace=wrap;html=1;" vertex="1" parent="1">
          <mxGeometry x="60" y="30" width="120" height="80" as="geometry" />
        </mxCell>
        <mxCell id="2XdhRBV7KyqIKCgZsZZ_-3" value="Запись в БД данных" style="shape=cylinder3;whiteSpace=wrap;html=1;boundedLbl=1;backgroundOutline=1;size=15;" vertex="1" parent="1">
          <mxGeometry x="100" y="-160" width="60" height="80" as="geometry" />
        </mxCell>
        <mxCell id="2XdhRBV7KyqIKCgZsZZ_-4" value="Легенда" style="text;html=1;strokeColor=none;fillColor=none;align=center;verticalAlign=middle;whiteSpace=wrap;rounded=0;" vertex="1" parent="1">
          <mxGeometry x="100" y="-190" width="60" height="30" as="geometry" />
        </mxCell>
        <mxCell id="2XdhRBV7KyqIKCgZsZZ_-5" value="" style="shape=flexArrow;endArrow=classic;html=1;rounded=0;" edge="1" parent="1">
          <mxGeometry width="50" height="50" relative="1" as="geometry">
            <mxPoint x="129.5" y="-10" as="sourcePoint" />
            <mxPoint x="129.5" y="-80" as="targetPoint" />
          </mxGeometry>
        </mxCell>
        <mxCell id="2XdhRBV7KyqIKCgZsZZ_-6" value="Запрос данных из БД" style="shape=cylinder3;whiteSpace=wrap;html=1;boundedLbl=1;backgroundOutline=1;size=15;" vertex="1" parent="1">
          <mxGeometry x="180" y="-160" width="60" height="80" as="geometry" />
        </mxCell>
        <mxCell id="2XdhRBV7KyqIKCgZsZZ_-7" value="" style="shape=flexArrow;endArrow=classic;html=1;rounded=0;" edge="1" parent="1">
          <mxGeometry width="50" height="50" relative="1" as="geometry">
            <mxPoint x="209.5" y="-80" as="sourcePoint" />
            <mxPoint x="210" y="-10" as="targetPoint" />
          </mxGeometry>
        </mxCell>
        <mxCell id="2XdhRBV7KyqIKCgZsZZ_-8" value="Автоматический выбор" style="rhombus;whiteSpace=wrap;html=1;dashed=1;strokeWidth=3;perimeterSpacing=0;" vertex="1" parent="1">
          <mxGeometry x="260" y="-120" width="80" height="80" as="geometry" />
        </mxCell>
        <mxCell id="2XdhRBV7KyqIKCgZsZZ_-9" value="Выбор пользователя" style="rhombus;whiteSpace=wrap;html=1;strokeWidth=1;" vertex="1" parent="1">
          <mxGeometry x="360" y="-120" width="80" height="80" as="geometry" />
        </mxCell>
      </root>
    </mxGraphModel>
  </diagram>
  <diagram id="WdyRvPK_gViIgtQoXbEy" name="Страница 2">
    <mxGraphModel dx="1422" dy="1931" grid="1" gridSize="10" guides="1" tooltips="1" connect="1" arrows="1" fold="1" page="1" pageScale="1" pageWidth="827" pageHeight="1169" math="0" shadow="0">
      <root>
        <mxCell id="0" />
        <mxCell id="1" parent="0" />
        <mxCell id="bGLQNSZzRs6PAlF2FX4R-1" value="user" style="shape=table;startSize=20;container=1;collapsible=0;childLayout=tableLayout;fontStyle=1;align=center;" vertex="1" parent="1">
          <mxGeometry x="352" y="-271" width="450" height="256" as="geometry" />
        </mxCell>
        <mxCell id="bGLQNSZzRs6PAlF2FX4R-2" value="" style="shape=tableRow;horizontal=0;startSize=0;swimlaneHead=0;swimlaneBody=0;top=0;left=0;bottom=0;right=0;collapsible=0;dropTarget=0;fillColor=none;points=[[0,0.5],[1,0.5]];portConstraint=eastwest;" vertex="1" parent="bGLQNSZzRs6PAlF2FX4R-1">
          <mxGeometry y="20" width="450" height="26" as="geometry" />
        </mxCell>
        <mxCell id="bGLQNSZzRs6PAlF2FX4R-3" value="PK" style="shape=partialRectangle;html=1;whiteSpace=wrap;connectable=0;fillColor=none;top=0;left=0;bottom=0;right=0;overflow=hidden;" vertex="1" parent="bGLQNSZzRs6PAlF2FX4R-2">
          <mxGeometry width="40" height="26" as="geometry">
            <mxRectangle width="40" height="26" as="alternateBounds" />
          </mxGeometry>
        </mxCell>
        <mxCell id="bGLQNSZzRs6PAlF2FX4R-4" value="user_id" style="shape=partialRectangle;html=1;whiteSpace=wrap;connectable=0;fillColor=none;top=0;left=0;bottom=0;right=0;overflow=hidden;" vertex="1" parent="bGLQNSZzRs6PAlF2FX4R-2">
          <mxGeometry x="40" width="110" height="26" as="geometry">
            <mxRectangle width="110" height="26" as="alternateBounds" />
          </mxGeometry>
        </mxCell>
        <mxCell id="bGLQNSZzRs6PAlF2FX4R-5" value="&lt;span style=&quot;font-family: &amp;#34;jetbrains mono&amp;#34; , monospace ; font-size: 14.4px ; background-color: rgb(243 , 244 , 246)&quot;&gt;INT PRIMARY KEY AUTO_INCREMENT&lt;/span&gt;" style="shape=partialRectangle;html=1;whiteSpace=wrap;connectable=0;fillColor=none;top=0;left=0;bottom=0;right=0;overflow=hidden;" vertex="1" parent="bGLQNSZzRs6PAlF2FX4R-2">
          <mxGeometry x="150" width="300" height="26" as="geometry">
            <mxRectangle width="300" height="26" as="alternateBounds" />
          </mxGeometry>
        </mxCell>
        <mxCell id="bGLQNSZzRs6PAlF2FX4R-6" value="" style="shape=tableRow;horizontal=0;startSize=0;swimlaneHead=0;swimlaneBody=0;top=0;left=0;bottom=0;right=0;collapsible=0;dropTarget=0;fillColor=none;points=[[0,0.5],[1,0.5]];portConstraint=eastwest;" vertex="1" parent="bGLQNSZzRs6PAlF2FX4R-1">
          <mxGeometry y="46" width="450" height="28" as="geometry" />
        </mxCell>
        <mxCell id="bGLQNSZzRs6PAlF2FX4R-7" value="" style="shape=partialRectangle;html=1;whiteSpace=wrap;connectable=0;fillColor=none;top=0;left=0;bottom=0;right=0;overflow=hidden;" vertex="1" parent="bGLQNSZzRs6PAlF2FX4R-6">
          <mxGeometry width="40" height="28" as="geometry">
            <mxRectangle width="40" height="28" as="alternateBounds" />
          </mxGeometry>
        </mxCell>
        <mxCell id="bGLQNSZzRs6PAlF2FX4R-8" value="telegram_id" style="shape=partialRectangle;html=1;whiteSpace=wrap;connectable=0;fillColor=none;top=0;left=0;bottom=0;right=0;overflow=hidden;" vertex="1" parent="bGLQNSZzRs6PAlF2FX4R-6">
          <mxGeometry x="40" width="110" height="28" as="geometry">
            <mxRectangle width="110" height="28" as="alternateBounds" />
          </mxGeometry>
        </mxCell>
        <mxCell id="bGLQNSZzRs6PAlF2FX4R-9" value="INT" style="shape=partialRectangle;html=1;whiteSpace=wrap;connectable=0;fillColor=none;top=0;left=0;bottom=0;right=0;overflow=hidden;" vertex="1" parent="bGLQNSZzRs6PAlF2FX4R-6">
          <mxGeometry x="150" width="300" height="28" as="geometry">
            <mxRectangle width="300" height="28" as="alternateBounds" />
          </mxGeometry>
        </mxCell>
        <mxCell id="bGLQNSZzRs6PAlF2FX4R-10" value="" style="shape=tableRow;horizontal=0;startSize=0;swimlaneHead=0;swimlaneBody=0;top=0;left=0;bottom=0;right=0;collapsible=0;dropTarget=0;fillColor=none;points=[[0,0.5],[1,0.5]];portConstraint=eastwest;" vertex="1" parent="bGLQNSZzRs6PAlF2FX4R-1">
          <mxGeometry y="74" width="450" height="26" as="geometry" />
        </mxCell>
        <mxCell id="bGLQNSZzRs6PAlF2FX4R-11" value="FK" style="shape=partialRectangle;html=1;whiteSpace=wrap;connectable=0;fillColor=none;top=0;left=0;bottom=0;right=0;overflow=hidden;" vertex="1" parent="bGLQNSZzRs6PAlF2FX4R-10">
          <mxGeometry width="40" height="26" as="geometry">
            <mxRectangle width="40" height="26" as="alternateBounds" />
          </mxGeometry>
        </mxCell>
        <mxCell id="bGLQNSZzRs6PAlF2FX4R-12" value="rank_id" style="shape=partialRectangle;html=1;whiteSpace=wrap;connectable=0;fillColor=none;top=0;left=0;bottom=0;right=0;overflow=hidden;" vertex="1" parent="bGLQNSZzRs6PAlF2FX4R-10">
          <mxGeometry x="40" width="110" height="26" as="geometry">
            <mxRectangle width="110" height="26" as="alternateBounds" />
          </mxGeometry>
        </mxCell>
        <mxCell id="bGLQNSZzRs6PAlF2FX4R-13" value="" style="shape=partialRectangle;html=1;whiteSpace=wrap;connectable=0;fillColor=none;top=0;left=0;bottom=0;right=0;overflow=hidden;" vertex="1" parent="bGLQNSZzRs6PAlF2FX4R-10">
          <mxGeometry x="150" width="300" height="26" as="geometry">
            <mxRectangle width="300" height="26" as="alternateBounds" />
          </mxGeometry>
        </mxCell>
        <mxCell id="bGLQNSZzRs6PAlF2FX4R-14" style="shape=tableRow;horizontal=0;startSize=0;swimlaneHead=0;swimlaneBody=0;top=0;left=0;bottom=0;right=0;collapsible=0;dropTarget=0;fillColor=none;points=[[0,0.5],[1,0.5]];portConstraint=eastwest;" vertex="1" parent="bGLQNSZzRs6PAlF2FX4R-1">
          <mxGeometry y="100" width="450" height="26" as="geometry" />
        </mxCell>
        <mxCell id="bGLQNSZzRs6PAlF2FX4R-15" style="shape=partialRectangle;html=1;whiteSpace=wrap;connectable=0;fillColor=none;top=0;left=0;bottom=0;right=0;overflow=hidden;" vertex="1" parent="bGLQNSZzRs6PAlF2FX4R-14">
          <mxGeometry width="40" height="26" as="geometry">
            <mxRectangle width="40" height="26" as="alternateBounds" />
          </mxGeometry>
        </mxCell>
        <mxCell id="bGLQNSZzRs6PAlF2FX4R-16" value="mobile" style="shape=partialRectangle;html=1;whiteSpace=wrap;connectable=0;fillColor=none;top=0;left=0;bottom=0;right=0;overflow=hidden;" vertex="1" parent="bGLQNSZzRs6PAlF2FX4R-14">
          <mxGeometry x="40" width="110" height="26" as="geometry">
            <mxRectangle width="110" height="26" as="alternateBounds" />
          </mxGeometry>
        </mxCell>
        <mxCell id="bGLQNSZzRs6PAlF2FX4R-17" value="&lt;span&gt;VARCHAR&lt;/span&gt;" style="shape=partialRectangle;html=1;whiteSpace=wrap;connectable=0;fillColor=none;top=0;left=0;bottom=0;right=0;overflow=hidden;" vertex="1" parent="bGLQNSZzRs6PAlF2FX4R-14">
          <mxGeometry x="150" width="300" height="26" as="geometry">
            <mxRectangle width="300" height="26" as="alternateBounds" />
          </mxGeometry>
        </mxCell>
        <mxCell id="bGLQNSZzRs6PAlF2FX4R-18" style="shape=tableRow;horizontal=0;startSize=0;swimlaneHead=0;swimlaneBody=0;top=0;left=0;bottom=0;right=0;collapsible=0;dropTarget=0;fillColor=none;points=[[0,0.5],[1,0.5]];portConstraint=eastwest;" vertex="1" parent="bGLQNSZzRs6PAlF2FX4R-1">
          <mxGeometry y="126" width="450" height="26" as="geometry" />
        </mxCell>
        <mxCell id="bGLQNSZzRs6PAlF2FX4R-19" style="shape=partialRectangle;html=1;whiteSpace=wrap;connectable=0;fillColor=none;top=0;left=0;bottom=0;right=0;overflow=hidden;" vertex="1" parent="bGLQNSZzRs6PAlF2FX4R-18">
          <mxGeometry width="40" height="26" as="geometry">
            <mxRectangle width="40" height="26" as="alternateBounds" />
          </mxGeometry>
        </mxCell>
        <mxCell id="bGLQNSZzRs6PAlF2FX4R-20" value="name_surname" style="shape=partialRectangle;html=1;whiteSpace=wrap;connectable=0;fillColor=none;top=0;left=0;bottom=0;right=0;overflow=hidden;" vertex="1" parent="bGLQNSZzRs6PAlF2FX4R-18">
          <mxGeometry x="40" width="110" height="26" as="geometry">
            <mxRectangle width="110" height="26" as="alternateBounds" />
          </mxGeometry>
        </mxCell>
        <mxCell id="bGLQNSZzRs6PAlF2FX4R-21" value="VARCHA&lt;span style=&quot;color: rgb(0 , 0 , 0) ; font-family: &amp;#34;helvetica&amp;#34; ; font-size: 12px ; font-style: normal ; font-weight: 400 ; letter-spacing: normal ; text-align: center ; text-indent: 0px ; text-transform: none ; word-spacing: 0px ; background-color: rgb(248 , 249 , 250) ; display: inline ; float: none&quot;&gt;R&lt;/span&gt;" style="shape=partialRectangle;html=1;whiteSpace=wrap;connectable=0;fillColor=none;top=0;left=0;bottom=0;right=0;overflow=hidden;" vertex="1" parent="bGLQNSZzRs6PAlF2FX4R-18">
          <mxGeometry x="150" width="300" height="26" as="geometry">
            <mxRectangle width="300" height="26" as="alternateBounds" />
          </mxGeometry>
        </mxCell>
        <mxCell id="bGLQNSZzRs6PAlF2FX4R-22" style="shape=tableRow;horizontal=0;startSize=0;swimlaneHead=0;swimlaneBody=0;top=0;left=0;bottom=0;right=0;collapsible=0;dropTarget=0;fillColor=none;points=[[0,0.5],[1,0.5]];portConstraint=eastwest;" vertex="1" parent="bGLQNSZzRs6PAlF2FX4R-1">
          <mxGeometry y="152" width="450" height="26" as="geometry" />
        </mxCell>
        <mxCell id="bGLQNSZzRs6PAlF2FX4R-23" style="shape=partialRectangle;html=1;whiteSpace=wrap;connectable=0;fillColor=none;top=0;left=0;bottom=0;right=0;overflow=hidden;" vertex="1" parent="bGLQNSZzRs6PAlF2FX4R-22">
          <mxGeometry width="40" height="26" as="geometry">
            <mxRectangle width="40" height="26" as="alternateBounds" />
          </mxGeometry>
        </mxCell>
        <mxCell id="bGLQNSZzRs6PAlF2FX4R-24" value="short_name" style="shape=partialRectangle;html=1;whiteSpace=wrap;connectable=0;fillColor=none;top=0;left=0;bottom=0;right=0;overflow=hidden;" vertex="1" parent="bGLQNSZzRs6PAlF2FX4R-22">
          <mxGeometry x="40" width="110" height="26" as="geometry">
            <mxRectangle width="110" height="26" as="alternateBounds" />
          </mxGeometry>
        </mxCell>
        <mxCell id="bGLQNSZzRs6PAlF2FX4R-25" value="VARCHA&lt;span&gt;R&lt;/span&gt;" style="shape=partialRectangle;html=1;whiteSpace=wrap;connectable=0;fillColor=none;top=0;left=0;bottom=0;right=0;overflow=hidden;" vertex="1" parent="bGLQNSZzRs6PAlF2FX4R-22">
          <mxGeometry x="150" width="300" height="26" as="geometry">
            <mxRectangle width="300" height="26" as="alternateBounds" />
          </mxGeometry>
        </mxCell>
        <mxCell id="bGLQNSZzRs6PAlF2FX4R-26" style="shape=tableRow;horizontal=0;startSize=0;swimlaneHead=0;swimlaneBody=0;top=0;left=0;bottom=0;right=0;collapsible=0;dropTarget=0;fillColor=none;points=[[0,0.5],[1,0.5]];portConstraint=eastwest;" vertex="1" parent="bGLQNSZzRs6PAlF2FX4R-1">
          <mxGeometry y="178" width="450" height="26" as="geometry" />
        </mxCell>
        <mxCell id="bGLQNSZzRs6PAlF2FX4R-27" style="shape=partialRectangle;html=1;whiteSpace=wrap;connectable=0;fillColor=none;top=0;left=0;bottom=0;right=0;overflow=hidden;" vertex="1" parent="bGLQNSZzRs6PAlF2FX4R-26">
          <mxGeometry width="40" height="26" as="geometry">
            <mxRectangle width="40" height="26" as="alternateBounds" />
          </mxGeometry>
        </mxCell>
        <mxCell id="bGLQNSZzRs6PAlF2FX4R-28" value="car_info" style="shape=partialRectangle;html=1;whiteSpace=wrap;connectable=0;fillColor=none;top=0;left=0;bottom=0;right=0;overflow=hidden;" vertex="1" parent="bGLQNSZzRs6PAlF2FX4R-26">
          <mxGeometry x="40" width="110" height="26" as="geometry">
            <mxRectangle width="110" height="26" as="alternateBounds" />
          </mxGeometry>
        </mxCell>
        <mxCell id="bGLQNSZzRs6PAlF2FX4R-29" value="VARCHA&lt;span&gt;R&lt;/span&gt;" style="shape=partialRectangle;html=1;whiteSpace=wrap;connectable=0;fillColor=none;top=0;left=0;bottom=0;right=0;overflow=hidden;" vertex="1" parent="bGLQNSZzRs6PAlF2FX4R-26">
          <mxGeometry x="150" width="300" height="26" as="geometry">
            <mxRectangle width="300" height="26" as="alternateBounds" />
          </mxGeometry>
        </mxCell>
        <mxCell id="bGLQNSZzRs6PAlF2FX4R-30" style="shape=tableRow;horizontal=0;startSize=0;swimlaneHead=0;swimlaneBody=0;top=0;left=0;bottom=0;right=0;collapsible=0;dropTarget=0;fillColor=none;points=[[0,0.5],[1,0.5]];portConstraint=eastwest;" vertex="1" parent="bGLQNSZzRs6PAlF2FX4R-1">
          <mxGeometry y="204" width="450" height="26" as="geometry" />
        </mxCell>
        <mxCell id="bGLQNSZzRs6PAlF2FX4R-31" style="shape=partialRectangle;html=1;whiteSpace=wrap;connectable=0;fillColor=none;top=0;left=0;bottom=0;right=0;overflow=hidden;" vertex="1" parent="bGLQNSZzRs6PAlF2FX4R-30">
          <mxGeometry width="40" height="26" as="geometry">
            <mxRectangle width="40" height="26" as="alternateBounds" />
          </mxGeometry>
        </mxCell>
        <mxCell id="bGLQNSZzRs6PAlF2FX4R-32" value="email" style="shape=partialRectangle;html=1;whiteSpace=wrap;connectable=0;fillColor=none;top=0;left=0;bottom=0;right=0;overflow=hidden;" vertex="1" parent="bGLQNSZzRs6PAlF2FX4R-30">
          <mxGeometry x="40" width="110" height="26" as="geometry">
            <mxRectangle width="110" height="26" as="alternateBounds" />
          </mxGeometry>
        </mxCell>
        <mxCell id="bGLQNSZzRs6PAlF2FX4R-33" value="VARCHA&lt;span&gt;R&lt;/span&gt;" style="shape=partialRectangle;html=1;whiteSpace=wrap;connectable=0;fillColor=none;top=0;left=0;bottom=0;right=0;overflow=hidden;" vertex="1" parent="bGLQNSZzRs6PAlF2FX4R-30">
          <mxGeometry x="150" width="300" height="26" as="geometry">
            <mxRectangle width="300" height="26" as="alternateBounds" />
          </mxGeometry>
        </mxCell>
        <mxCell id="bGLQNSZzRs6PAlF2FX4R-34" style="shape=tableRow;horizontal=0;startSize=0;swimlaneHead=0;swimlaneBody=0;top=0;left=0;bottom=0;right=0;collapsible=0;dropTarget=0;fillColor=none;points=[[0,0.5],[1,0.5]];portConstraint=eastwest;" vertex="1" parent="bGLQNSZzRs6PAlF2FX4R-1">
          <mxGeometry y="230" width="450" height="26" as="geometry" />
        </mxCell>
        <mxCell id="bGLQNSZzRs6PAlF2FX4R-35" style="shape=partialRectangle;html=1;whiteSpace=wrap;connectable=0;fillColor=none;top=0;left=0;bottom=0;right=0;overflow=hidden;" vertex="1" parent="bGLQNSZzRs6PAlF2FX4R-34">
          <mxGeometry width="40" height="26" as="geometry">
            <mxRectangle width="40" height="26" as="alternateBounds" />
          </mxGeometry>
        </mxCell>
        <mxCell id="bGLQNSZzRs6PAlF2FX4R-36" style="shape=partialRectangle;html=1;whiteSpace=wrap;connectable=0;fillColor=none;top=0;left=0;bottom=0;right=0;overflow=hidden;" vertex="1" parent="bGLQNSZzRs6PAlF2FX4R-34">
          <mxGeometry x="40" width="110" height="26" as="geometry">
            <mxRectangle width="110" height="26" as="alternateBounds" />
          </mxGeometry>
        </mxCell>
        <mxCell id="bGLQNSZzRs6PAlF2FX4R-37" style="shape=partialRectangle;html=1;whiteSpace=wrap;connectable=0;fillColor=none;top=0;left=0;bottom=0;right=0;overflow=hidden;" vertex="1" parent="bGLQNSZzRs6PAlF2FX4R-34">
          <mxGeometry x="150" width="300" height="26" as="geometry">
            <mxRectangle width="300" height="26" as="alternateBounds" />
          </mxGeometry>
        </mxCell>
        <mxCell id="bGLQNSZzRs6PAlF2FX4R-38" value="rank" style="shape=table;startSize=20;container=1;collapsible=0;childLayout=tableLayout;fontStyle=1;align=center;" vertex="1" parent="1">
          <mxGeometry x="352.5" y="-550" width="450" height="74" as="geometry" />
        </mxCell>
        <mxCell id="bGLQNSZzRs6PAlF2FX4R-39" value="" style="shape=tableRow;horizontal=0;startSize=0;swimlaneHead=0;swimlaneBody=0;top=0;left=0;bottom=0;right=0;collapsible=0;dropTarget=0;fillColor=none;points=[[0,0.5],[1,0.5]];portConstraint=eastwest;" vertex="1" parent="bGLQNSZzRs6PAlF2FX4R-38">
          <mxGeometry y="20" width="450" height="26" as="geometry" />
        </mxCell>
        <mxCell id="bGLQNSZzRs6PAlF2FX4R-40" value="PK" style="shape=partialRectangle;html=1;whiteSpace=wrap;connectable=0;fillColor=none;top=0;left=0;bottom=0;right=0;overflow=hidden;" vertex="1" parent="bGLQNSZzRs6PAlF2FX4R-39">
          <mxGeometry width="40" height="26" as="geometry">
            <mxRectangle width="40" height="26" as="alternateBounds" />
          </mxGeometry>
        </mxCell>
        <mxCell id="bGLQNSZzRs6PAlF2FX4R-41" value="rank_id" style="shape=partialRectangle;html=1;whiteSpace=wrap;connectable=0;fillColor=none;top=0;left=0;bottom=0;right=0;overflow=hidden;" vertex="1" parent="bGLQNSZzRs6PAlF2FX4R-39">
          <mxGeometry x="40" width="110" height="26" as="geometry">
            <mxRectangle width="110" height="26" as="alternateBounds" />
          </mxGeometry>
        </mxCell>
        <mxCell id="bGLQNSZzRs6PAlF2FX4R-42" value="&lt;span style=&quot;font-family: &amp;#34;jetbrains mono&amp;#34; , monospace ; font-size: 14.4px ; background-color: rgb(243 , 244 , 246)&quot;&gt;INT PRIMARY KEY AUTO_INCREMENT&lt;/span&gt;" style="shape=partialRectangle;html=1;whiteSpace=wrap;connectable=0;fillColor=none;top=0;left=0;bottom=0;right=0;overflow=hidden;" vertex="1" parent="bGLQNSZzRs6PAlF2FX4R-39">
          <mxGeometry x="150" width="300" height="26" as="geometry">
            <mxRectangle width="300" height="26" as="alternateBounds" />
          </mxGeometry>
        </mxCell>
        <mxCell id="bGLQNSZzRs6PAlF2FX4R-43" value="" style="shape=tableRow;horizontal=0;startSize=0;swimlaneHead=0;swimlaneBody=0;top=0;left=0;bottom=0;right=0;collapsible=0;dropTarget=0;fillColor=none;points=[[0,0.5],[1,0.5]];portConstraint=eastwest;" vertex="1" parent="bGLQNSZzRs6PAlF2FX4R-38">
          <mxGeometry y="46" width="450" height="28" as="geometry" />
        </mxCell>
        <mxCell id="bGLQNSZzRs6PAlF2FX4R-44" value="" style="shape=partialRectangle;html=1;whiteSpace=wrap;connectable=0;fillColor=none;top=0;left=0;bottom=0;right=0;overflow=hidden;" vertex="1" parent="bGLQNSZzRs6PAlF2FX4R-43">
          <mxGeometry width="40" height="28" as="geometry">
            <mxRectangle width="40" height="28" as="alternateBounds" />
          </mxGeometry>
        </mxCell>
        <mxCell id="bGLQNSZzRs6PAlF2FX4R-45" value="rank_name" style="shape=partialRectangle;html=1;whiteSpace=wrap;connectable=0;fillColor=none;top=0;left=0;bottom=0;right=0;overflow=hidden;" vertex="1" parent="bGLQNSZzRs6PAlF2FX4R-43">
          <mxGeometry x="40" width="110" height="28" as="geometry">
            <mxRectangle width="110" height="28" as="alternateBounds" />
          </mxGeometry>
        </mxCell>
        <mxCell id="bGLQNSZzRs6PAlF2FX4R-46" value="VARCHAR(10)" style="shape=partialRectangle;html=1;whiteSpace=wrap;connectable=0;fillColor=none;top=0;left=0;bottom=0;right=0;overflow=hidden;" vertex="1" parent="bGLQNSZzRs6PAlF2FX4R-43">
          <mxGeometry x="150" width="300" height="28" as="geometry">
            <mxRectangle width="300" height="28" as="alternateBounds" />
          </mxGeometry>
        </mxCell>
        <mxCell id="bGLQNSZzRs6PAlF2FX4R-47" value="user_rank" style="shape=table;startSize=20;container=1;collapsible=0;childLayout=tableLayout;fontStyle=1;align=center;" vertex="1" parent="1">
          <mxGeometry x="352.5" y="-420" width="450" height="100" as="geometry" />
        </mxCell>
        <mxCell id="bGLQNSZzRs6PAlF2FX4R-48" value="" style="shape=tableRow;horizontal=0;startSize=0;swimlaneHead=0;swimlaneBody=0;top=0;left=0;bottom=0;right=0;collapsible=0;dropTarget=0;fillColor=none;points=[[0,0.5],[1,0.5]];portConstraint=eastwest;" vertex="1" parent="bGLQNSZzRs6PAlF2FX4R-47">
          <mxGeometry y="20" width="450" height="26" as="geometry" />
        </mxCell>
        <mxCell id="bGLQNSZzRs6PAlF2FX4R-49" value="PK" style="shape=partialRectangle;html=1;whiteSpace=wrap;connectable=0;fillColor=none;top=0;left=0;bottom=0;right=0;overflow=hidden;" vertex="1" parent="bGLQNSZzRs6PAlF2FX4R-48">
          <mxGeometry width="40" height="26" as="geometry">
            <mxRectangle width="40" height="26" as="alternateBounds" />
          </mxGeometry>
        </mxCell>
        <mxCell id="bGLQNSZzRs6PAlF2FX4R-50" value="user_rank_id" style="shape=partialRectangle;html=1;whiteSpace=wrap;connectable=0;fillColor=none;top=0;left=0;bottom=0;right=0;overflow=hidden;" vertex="1" parent="bGLQNSZzRs6PAlF2FX4R-48">
          <mxGeometry x="40" width="110" height="26" as="geometry">
            <mxRectangle width="110" height="26" as="alternateBounds" />
          </mxGeometry>
        </mxCell>
        <mxCell id="bGLQNSZzRs6PAlF2FX4R-51" value="&lt;span style=&quot;font-family: &amp;#34;jetbrains mono&amp;#34; , monospace ; font-size: 14.4px ; background-color: rgb(243 , 244 , 246)&quot;&gt;INT PRIMARY KEY AUTO_INCREMENT&lt;/span&gt;" style="shape=partialRectangle;html=1;whiteSpace=wrap;connectable=0;fillColor=none;top=0;left=0;bottom=0;right=0;overflow=hidden;" vertex="1" parent="bGLQNSZzRs6PAlF2FX4R-48">
          <mxGeometry x="150" width="300" height="26" as="geometry">
            <mxRectangle width="300" height="26" as="alternateBounds" />
          </mxGeometry>
        </mxCell>
        <mxCell id="bGLQNSZzRs6PAlF2FX4R-52" style="shape=tableRow;horizontal=0;startSize=0;swimlaneHead=0;swimlaneBody=0;top=0;left=0;bottom=0;right=0;collapsible=0;dropTarget=0;fillColor=none;points=[[0,0.5],[1,0.5]];portConstraint=eastwest;" vertex="1" parent="bGLQNSZzRs6PAlF2FX4R-47">
          <mxGeometry y="46" width="450" height="26" as="geometry" />
        </mxCell>
        <mxCell id="bGLQNSZzRs6PAlF2FX4R-53" value="FK" style="shape=partialRectangle;html=1;whiteSpace=wrap;connectable=0;fillColor=none;top=0;left=0;bottom=0;right=0;overflow=hidden;rowspan=2;colspan=1;" vertex="1" parent="bGLQNSZzRs6PAlF2FX4R-52">
          <mxGeometry width="40" height="54" as="geometry">
            <mxRectangle width="40" height="26" as="alternateBounds" />
          </mxGeometry>
        </mxCell>
        <mxCell id="bGLQNSZzRs6PAlF2FX4R-54" value="&lt;span style=&quot;color: rgb(0 , 0 , 0) ; font-family: &amp;#34;helvetica&amp;#34; ; font-size: 12px ; font-style: normal ; font-weight: 400 ; letter-spacing: normal ; text-align: center ; text-indent: 0px ; text-transform: none ; word-spacing: 0px ; background-color: rgb(248 , 249 , 250) ; display: inline ; float: none&quot;&gt;rank_id&lt;/span&gt;" style="shape=partialRectangle;html=1;whiteSpace=wrap;connectable=0;fillColor=none;top=0;left=0;bottom=0;right=0;overflow=hidden;" vertex="1" parent="bGLQNSZzRs6PAlF2FX4R-52">
          <mxGeometry x="40" width="110" height="26" as="geometry">
            <mxRectangle width="110" height="26" as="alternateBounds" />
          </mxGeometry>
        </mxCell>
        <mxCell id="bGLQNSZzRs6PAlF2FX4R-55" style="shape=partialRectangle;html=1;whiteSpace=wrap;connectable=0;fillColor=none;top=0;left=0;bottom=0;right=0;overflow=hidden;" vertex="1" parent="bGLQNSZzRs6PAlF2FX4R-52">
          <mxGeometry x="150" width="300" height="26" as="geometry">
            <mxRectangle width="300" height="26" as="alternateBounds" />
          </mxGeometry>
        </mxCell>
        <mxCell id="bGLQNSZzRs6PAlF2FX4R-56" value="" style="shape=tableRow;horizontal=0;startSize=0;swimlaneHead=0;swimlaneBody=0;top=0;left=0;bottom=0;right=0;collapsible=0;dropTarget=0;fillColor=none;points=[[0,0.5],[1,0.5]];portConstraint=eastwest;" vertex="1" parent="bGLQNSZzRs6PAlF2FX4R-47">
          <mxGeometry y="72" width="450" height="28" as="geometry" />
        </mxCell>
        <mxCell id="bGLQNSZzRs6PAlF2FX4R-57" value="FK" style="shape=partialRectangle;html=1;whiteSpace=wrap;connectable=0;fillColor=none;top=0;left=0;bottom=0;right=0;overflow=hidden;" vertex="1" visible="0" parent="bGLQNSZzRs6PAlF2FX4R-56">
          <mxGeometry width="40" height="28" as="geometry">
            <mxRectangle width="40" height="28" as="alternateBounds" />
          </mxGeometry>
        </mxCell>
        <mxCell id="bGLQNSZzRs6PAlF2FX4R-58" value="user_id" style="shape=partialRectangle;html=1;whiteSpace=wrap;connectable=0;fillColor=none;top=0;left=0;bottom=0;right=0;overflow=hidden;" vertex="1" parent="bGLQNSZzRs6PAlF2FX4R-56">
          <mxGeometry x="40" width="110" height="28" as="geometry">
            <mxRectangle width="110" height="28" as="alternateBounds" />
          </mxGeometry>
        </mxCell>
        <mxCell id="bGLQNSZzRs6PAlF2FX4R-59" value="" style="shape=partialRectangle;html=1;whiteSpace=wrap;connectable=0;fillColor=none;top=0;left=0;bottom=0;right=0;overflow=hidden;" vertex="1" parent="bGLQNSZzRs6PAlF2FX4R-56">
          <mxGeometry x="150" width="300" height="28" as="geometry">
            <mxRectangle width="300" height="28" as="alternateBounds" />
          </mxGeometry>
        </mxCell>
        <mxCell id="bGLQNSZzRs6PAlF2FX4R-60" style="edgeStyle=orthogonalEdgeStyle;rounded=0;orthogonalLoop=1;jettySize=auto;html=1;exitX=0;exitY=0.5;exitDx=0;exitDy=0;entryX=0;entryY=0.5;entryDx=0;entryDy=0;" edge="1" parent="1" source="bGLQNSZzRs6PAlF2FX4R-2" target="bGLQNSZzRs6PAlF2FX4R-56">
          <mxGeometry relative="1" as="geometry" />
        </mxCell>
        <mxCell id="bGLQNSZzRs6PAlF2FX4R-61" style="edgeStyle=orthogonalEdgeStyle;rounded=0;orthogonalLoop=1;jettySize=auto;html=1;exitX=0;exitY=0.5;exitDx=0;exitDy=0;entryX=0;entryY=0.5;entryDx=0;entryDy=0;" edge="1" parent="1" source="bGLQNSZzRs6PAlF2FX4R-43" target="bGLQNSZzRs6PAlF2FX4R-52">
          <mxGeometry relative="1" as="geometry" />
        </mxCell>
        <mxCell id="bGLQNSZzRs6PAlF2FX4R-62" value="rank" style="shape=table;startSize=30;container=1;collapsible=1;childLayout=tableLayout;fixedRows=1;rowLines=0;fontStyle=1;align=center;resizeLast=1;" vertex="1" parent="1">
          <mxGeometry x="890" y="-410" width="180" height="100" as="geometry">
            <mxRectangle x="850" y="-550" width="60" height="30" as="alternateBounds" />
          </mxGeometry>
        </mxCell>
        <mxCell id="bGLQNSZzRs6PAlF2FX4R-63" value="" style="shape=tableRow;horizontal=0;startSize=0;swimlaneHead=0;swimlaneBody=0;fillColor=none;collapsible=0;dropTarget=0;points=[[0,0.5],[1,0.5]];portConstraint=eastwest;top=0;left=0;right=0;bottom=1;" vertex="1" parent="bGLQNSZzRs6PAlF2FX4R-62">
          <mxGeometry y="30" width="180" height="30" as="geometry" />
        </mxCell>
        <mxCell id="bGLQNSZzRs6PAlF2FX4R-64" value="PK" style="shape=partialRectangle;connectable=0;fillColor=none;top=0;left=0;bottom=0;right=0;fontStyle=1;overflow=hidden;" vertex="1" parent="bGLQNSZzRs6PAlF2FX4R-63">
          <mxGeometry width="30" height="30" as="geometry">
            <mxRectangle width="30" height="30" as="alternateBounds" />
          </mxGeometry>
        </mxCell>
        <mxCell id="bGLQNSZzRs6PAlF2FX4R-65" value="rank_id" style="shape=partialRectangle;connectable=0;fillColor=none;top=0;left=0;bottom=0;right=0;align=left;spacingLeft=6;fontStyle=5;overflow=hidden;" vertex="1" parent="bGLQNSZzRs6PAlF2FX4R-63">
          <mxGeometry x="30" width="150" height="30" as="geometry">
            <mxRectangle width="150" height="30" as="alternateBounds" />
          </mxGeometry>
        </mxCell>
        <mxCell id="bGLQNSZzRs6PAlF2FX4R-66" value="" style="shape=tableRow;horizontal=0;startSize=0;swimlaneHead=0;swimlaneBody=0;fillColor=none;collapsible=0;dropTarget=0;points=[[0,0.5],[1,0.5]];portConstraint=eastwest;top=0;left=0;right=0;bottom=0;" vertex="1" parent="bGLQNSZzRs6PAlF2FX4R-62">
          <mxGeometry y="60" width="180" height="30" as="geometry" />
        </mxCell>
        <mxCell id="bGLQNSZzRs6PAlF2FX4R-67" value="" style="shape=partialRectangle;connectable=0;fillColor=none;top=0;left=0;bottom=0;right=0;editable=1;overflow=hidden;" vertex="1" parent="bGLQNSZzRs6PAlF2FX4R-66">
          <mxGeometry width="30" height="30" as="geometry">
            <mxRectangle width="30" height="30" as="alternateBounds" />
          </mxGeometry>
        </mxCell>
        <mxCell id="bGLQNSZzRs6PAlF2FX4R-68" value="rank_name" style="shape=partialRectangle;connectable=0;fillColor=none;top=0;left=0;bottom=0;right=0;align=left;spacingLeft=6;overflow=hidden;" vertex="1" parent="bGLQNSZzRs6PAlF2FX4R-66">
          <mxGeometry x="30" width="150" height="30" as="geometry">
            <mxRectangle width="150" height="30" as="alternateBounds" />
          </mxGeometry>
        </mxCell>
        <mxCell id="bGLQNSZzRs6PAlF2FX4R-69" value="user" style="shape=table;startSize=30;container=1;collapsible=1;childLayout=tableLayout;fixedRows=1;rowLines=0;fontStyle=1;align=center;resizeLast=1;" vertex="1" parent="1">
          <mxGeometry x="890" y="-275.5" width="180" height="281" as="geometry">
            <mxRectangle x="890" y="-275.5" width="60" height="30" as="alternateBounds" />
          </mxGeometry>
        </mxCell>
        <mxCell id="bGLQNSZzRs6PAlF2FX4R-70" value="" style="shape=tableRow;horizontal=0;startSize=0;swimlaneHead=0;swimlaneBody=0;fillColor=none;collapsible=0;dropTarget=0;points=[[0,0.5],[1,0.5]];portConstraint=eastwest;top=0;left=0;right=0;bottom=1;" vertex="1" parent="bGLQNSZzRs6PAlF2FX4R-69">
          <mxGeometry y="30" width="180" height="30" as="geometry" />
        </mxCell>
        <mxCell id="bGLQNSZzRs6PAlF2FX4R-71" value="PK" style="shape=partialRectangle;connectable=0;fillColor=none;top=0;left=0;bottom=0;right=0;fontStyle=1;overflow=hidden;" vertex="1" parent="bGLQNSZzRs6PAlF2FX4R-70">
          <mxGeometry width="30" height="30" as="geometry">
            <mxRectangle width="30" height="30" as="alternateBounds" />
          </mxGeometry>
        </mxCell>
        <mxCell id="bGLQNSZzRs6PAlF2FX4R-72" value="user_id" style="shape=partialRectangle;connectable=0;fillColor=none;top=0;left=0;bottom=0;right=0;align=left;spacingLeft=6;fontStyle=5;overflow=hidden;" vertex="1" parent="bGLQNSZzRs6PAlF2FX4R-70">
          <mxGeometry x="30" width="150" height="30" as="geometry">
            <mxRectangle width="150" height="30" as="alternateBounds" />
          </mxGeometry>
        </mxCell>
        <mxCell id="bGLQNSZzRs6PAlF2FX4R-73" value="" style="shape=tableRow;horizontal=0;startSize=0;swimlaneHead=0;swimlaneBody=0;fillColor=none;collapsible=0;dropTarget=0;points=[[0,0.5],[1,0.5]];portConstraint=eastwest;top=0;left=0;right=0;bottom=0;" vertex="1" parent="bGLQNSZzRs6PAlF2FX4R-69">
          <mxGeometry y="60" width="180" height="30" as="geometry" />
        </mxCell>
        <mxCell id="bGLQNSZzRs6PAlF2FX4R-74" value="" style="shape=partialRectangle;connectable=0;fillColor=none;top=0;left=0;bottom=0;right=0;editable=1;overflow=hidden;" vertex="1" parent="bGLQNSZzRs6PAlF2FX4R-73">
          <mxGeometry width="30" height="30" as="geometry">
            <mxRectangle width="30" height="30" as="alternateBounds" />
          </mxGeometry>
        </mxCell>
        <mxCell id="bGLQNSZzRs6PAlF2FX4R-75" value="telegram_id" style="shape=partialRectangle;connectable=0;fillColor=none;top=0;left=0;bottom=0;right=0;align=left;spacingLeft=6;overflow=hidden;" vertex="1" parent="bGLQNSZzRs6PAlF2FX4R-73">
          <mxGeometry x="30" width="150" height="30" as="geometry">
            <mxRectangle width="150" height="30" as="alternateBounds" />
          </mxGeometry>
        </mxCell>
        <mxCell id="bGLQNSZzRs6PAlF2FX4R-79" style="shape=tableRow;horizontal=0;startSize=0;swimlaneHead=0;swimlaneBody=0;fillColor=none;collapsible=0;dropTarget=0;points=[[0,0.5],[1,0.5]];portConstraint=eastwest;top=0;left=0;right=0;bottom=0;" vertex="1" parent="bGLQNSZzRs6PAlF2FX4R-69">
          <mxGeometry y="90" width="180" height="30" as="geometry" />
        </mxCell>
        <mxCell id="bGLQNSZzRs6PAlF2FX4R-80" style="shape=partialRectangle;connectable=0;fillColor=none;top=0;left=0;bottom=0;right=0;editable=1;overflow=hidden;" vertex="1" parent="bGLQNSZzRs6PAlF2FX4R-79">
          <mxGeometry width="30" height="30" as="geometry">
            <mxRectangle width="30" height="30" as="alternateBounds" />
          </mxGeometry>
        </mxCell>
        <mxCell id="bGLQNSZzRs6PAlF2FX4R-81" value="mobile" style="shape=partialRectangle;connectable=0;fillColor=none;top=0;left=0;bottom=0;right=0;align=left;spacingLeft=6;overflow=hidden;" vertex="1" parent="bGLQNSZzRs6PAlF2FX4R-79">
          <mxGeometry x="30" width="150" height="30" as="geometry">
            <mxRectangle width="150" height="30" as="alternateBounds" />
          </mxGeometry>
        </mxCell>
        <mxCell id="bGLQNSZzRs6PAlF2FX4R-82" style="shape=tableRow;horizontal=0;startSize=0;swimlaneHead=0;swimlaneBody=0;fillColor=none;collapsible=0;dropTarget=0;points=[[0,0.5],[1,0.5]];portConstraint=eastwest;top=0;left=0;right=0;bottom=0;" vertex="1" parent="bGLQNSZzRs6PAlF2FX4R-69">
          <mxGeometry y="120" width="180" height="30" as="geometry" />
        </mxCell>
        <mxCell id="bGLQNSZzRs6PAlF2FX4R-83" style="shape=partialRectangle;connectable=0;fillColor=none;top=0;left=0;bottom=0;right=0;editable=1;overflow=hidden;" vertex="1" parent="bGLQNSZzRs6PAlF2FX4R-82">
          <mxGeometry width="30" height="30" as="geometry">
            <mxRectangle width="30" height="30" as="alternateBounds" />
          </mxGeometry>
        </mxCell>
        <mxCell id="bGLQNSZzRs6PAlF2FX4R-84" value="name_surname" style="shape=partialRectangle;connectable=0;fillColor=none;top=0;left=0;bottom=0;right=0;align=left;spacingLeft=6;overflow=hidden;" vertex="1" parent="bGLQNSZzRs6PAlF2FX4R-82">
          <mxGeometry x="30" width="150" height="30" as="geometry">
            <mxRectangle width="150" height="30" as="alternateBounds" />
          </mxGeometry>
        </mxCell>
        <mxCell id="bGLQNSZzRs6PAlF2FX4R-85" style="shape=tableRow;horizontal=0;startSize=0;swimlaneHead=0;swimlaneBody=0;fillColor=none;collapsible=0;dropTarget=0;points=[[0,0.5],[1,0.5]];portConstraint=eastwest;top=0;left=0;right=0;bottom=0;" vertex="1" parent="bGLQNSZzRs6PAlF2FX4R-69">
          <mxGeometry y="150" width="180" height="30" as="geometry" />
        </mxCell>
        <mxCell id="bGLQNSZzRs6PAlF2FX4R-86" style="shape=partialRectangle;connectable=0;fillColor=none;top=0;left=0;bottom=0;right=0;editable=1;overflow=hidden;" vertex="1" parent="bGLQNSZzRs6PAlF2FX4R-85">
          <mxGeometry width="30" height="30" as="geometry">
            <mxRectangle width="30" height="30" as="alternateBounds" />
          </mxGeometry>
        </mxCell>
        <mxCell id="bGLQNSZzRs6PAlF2FX4R-87" value="short_name" style="shape=partialRectangle;connectable=0;fillColor=none;top=0;left=0;bottom=0;right=0;align=left;spacingLeft=6;overflow=hidden;" vertex="1" parent="bGLQNSZzRs6PAlF2FX4R-85">
          <mxGeometry x="30" width="150" height="30" as="geometry">
            <mxRectangle width="150" height="30" as="alternateBounds" />
          </mxGeometry>
        </mxCell>
        <mxCell id="bGLQNSZzRs6PAlF2FX4R-88" style="shape=tableRow;horizontal=0;startSize=0;swimlaneHead=0;swimlaneBody=0;fillColor=none;collapsible=0;dropTarget=0;points=[[0,0.5],[1,0.5]];portConstraint=eastwest;top=0;left=0;right=0;bottom=0;" vertex="1" parent="bGLQNSZzRs6PAlF2FX4R-69">
          <mxGeometry y="180" width="180" height="31" as="geometry" />
        </mxCell>
        <mxCell id="bGLQNSZzRs6PAlF2FX4R-89" style="shape=partialRectangle;connectable=0;fillColor=none;top=0;left=0;bottom=0;right=0;editable=1;overflow=hidden;" vertex="1" parent="bGLQNSZzRs6PAlF2FX4R-88">
          <mxGeometry width="30" height="31" as="geometry">
            <mxRectangle width="30" height="31" as="alternateBounds" />
          </mxGeometry>
        </mxCell>
        <mxCell id="bGLQNSZzRs6PAlF2FX4R-90" value="car_info" style="shape=partialRectangle;connectable=0;fillColor=none;top=0;left=0;bottom=0;right=0;align=left;spacingLeft=6;overflow=hidden;" vertex="1" parent="bGLQNSZzRs6PAlF2FX4R-88">
          <mxGeometry x="30" width="150" height="31" as="geometry">
            <mxRectangle width="150" height="31" as="alternateBounds" />
          </mxGeometry>
        </mxCell>
        <mxCell id="bGLQNSZzRs6PAlF2FX4R-91" style="shape=tableRow;horizontal=0;startSize=0;swimlaneHead=0;swimlaneBody=0;fillColor=none;collapsible=0;dropTarget=0;points=[[0,0.5],[1,0.5]];portConstraint=eastwest;top=0;left=0;right=0;bottom=0;" vertex="1" parent="bGLQNSZzRs6PAlF2FX4R-69">
          <mxGeometry y="211" width="180" height="30" as="geometry" />
        </mxCell>
        <mxCell id="bGLQNSZzRs6PAlF2FX4R-92" style="shape=partialRectangle;connectable=0;fillColor=none;top=0;left=0;bottom=0;right=0;editable=1;overflow=hidden;" vertex="1" parent="bGLQNSZzRs6PAlF2FX4R-91">
          <mxGeometry width="30" height="30" as="geometry">
            <mxRectangle width="30" height="30" as="alternateBounds" />
          </mxGeometry>
        </mxCell>
        <mxCell id="bGLQNSZzRs6PAlF2FX4R-93" value="email" style="shape=partialRectangle;connectable=0;fillColor=none;top=0;left=0;bottom=0;right=0;align=left;spacingLeft=6;overflow=hidden;" vertex="1" parent="bGLQNSZzRs6PAlF2FX4R-91">
          <mxGeometry x="30" width="150" height="30" as="geometry">
            <mxRectangle width="150" height="30" as="alternateBounds" />
          </mxGeometry>
        </mxCell>
        <mxCell id="bGLQNSZzRs6PAlF2FX4R-94" style="shape=tableRow;horizontal=0;startSize=0;swimlaneHead=0;swimlaneBody=0;fillColor=none;collapsible=0;dropTarget=0;points=[[0,0.5],[1,0.5]];portConstraint=eastwest;top=0;left=0;right=0;bottom=0;" vertex="1" parent="bGLQNSZzRs6PAlF2FX4R-69">
          <mxGeometry y="241" width="180" height="30" as="geometry" />
        </mxCell>
        <mxCell id="bGLQNSZzRs6PAlF2FX4R-95" style="shape=partialRectangle;connectable=0;fillColor=none;top=0;left=0;bottom=0;right=0;editable=1;overflow=hidden;" vertex="1" parent="bGLQNSZzRs6PAlF2FX4R-94">
          <mxGeometry width="30" height="30" as="geometry">
            <mxRectangle width="30" height="30" as="alternateBounds" />
          </mxGeometry>
        </mxCell>
        <mxCell id="bGLQNSZzRs6PAlF2FX4R-96" value="rank_id" style="shape=partialRectangle;connectable=0;fillColor=none;top=0;left=0;bottom=0;right=0;align=left;spacingLeft=6;overflow=hidden;" vertex="1" parent="bGLQNSZzRs6PAlF2FX4R-94">
          <mxGeometry x="30" width="150" height="30" as="geometry">
            <mxRectangle width="150" height="30" as="alternateBounds" />
          </mxGeometry>
        </mxCell>
        <mxCell id="bGLQNSZzRs6PAlF2FX4R-97" value="club" style="shape=table;startSize=30;container=1;collapsible=1;childLayout=tableLayout;fixedRows=1;rowLines=0;fontStyle=1;align=center;resizeLast=1;" vertex="1" parent="1">
          <mxGeometry x="1370" y="-275.5" width="180" height="130" as="geometry">
            <mxRectangle x="890" y="-275.5" width="60" height="30" as="alternateBounds" />
          </mxGeometry>
        </mxCell>
        <mxCell id="bGLQNSZzRs6PAlF2FX4R-98" value="" style="shape=tableRow;horizontal=0;startSize=0;swimlaneHead=0;swimlaneBody=0;fillColor=none;collapsible=0;dropTarget=0;points=[[0,0.5],[1,0.5]];portConstraint=eastwest;top=0;left=0;right=0;bottom=1;" vertex="1" parent="bGLQNSZzRs6PAlF2FX4R-97">
          <mxGeometry y="30" width="180" height="30" as="geometry" />
        </mxCell>
        <mxCell id="bGLQNSZzRs6PAlF2FX4R-99" value="PK" style="shape=partialRectangle;connectable=0;fillColor=none;top=0;left=0;bottom=0;right=0;fontStyle=1;overflow=hidden;" vertex="1" parent="bGLQNSZzRs6PAlF2FX4R-98">
          <mxGeometry width="30" height="30" as="geometry">
            <mxRectangle width="30" height="30" as="alternateBounds" />
          </mxGeometry>
        </mxCell>
        <mxCell id="bGLQNSZzRs6PAlF2FX4R-100" value="club_id" style="shape=partialRectangle;connectable=0;fillColor=none;top=0;left=0;bottom=0;right=0;align=left;spacingLeft=6;fontStyle=5;overflow=hidden;" vertex="1" parent="bGLQNSZzRs6PAlF2FX4R-98">
          <mxGeometry x="30" width="150" height="30" as="geometry">
            <mxRectangle width="150" height="30" as="alternateBounds" />
          </mxGeometry>
        </mxCell>
        <mxCell id="bGLQNSZzRs6PAlF2FX4R-104" style="shape=tableRow;horizontal=0;startSize=0;swimlaneHead=0;swimlaneBody=0;fillColor=none;collapsible=0;dropTarget=0;points=[[0,0.5],[1,0.5]];portConstraint=eastwest;top=0;left=0;right=0;bottom=0;" vertex="1" parent="bGLQNSZzRs6PAlF2FX4R-97">
          <mxGeometry y="60" width="180" height="30" as="geometry" />
        </mxCell>
        <mxCell id="bGLQNSZzRs6PAlF2FX4R-105" style="shape=partialRectangle;connectable=0;fillColor=none;top=0;left=0;bottom=0;right=0;editable=1;overflow=hidden;" vertex="1" parent="bGLQNSZzRs6PAlF2FX4R-104">
          <mxGeometry width="30" height="30" as="geometry">
            <mxRectangle width="30" height="30" as="alternateBounds" />
          </mxGeometry>
        </mxCell>
        <mxCell id="bGLQNSZzRs6PAlF2FX4R-106" value="club_name" style="shape=partialRectangle;connectable=0;fillColor=none;top=0;left=0;bottom=0;right=0;align=left;spacingLeft=6;overflow=hidden;" vertex="1" parent="bGLQNSZzRs6PAlF2FX4R-104">
          <mxGeometry x="30" width="150" height="30" as="geometry">
            <mxRectangle width="150" height="30" as="alternateBounds" />
          </mxGeometry>
        </mxCell>
        <mxCell id="bGLQNSZzRs6PAlF2FX4R-107" style="shape=tableRow;horizontal=0;startSize=0;swimlaneHead=0;swimlaneBody=0;fillColor=none;collapsible=0;dropTarget=0;points=[[0,0.5],[1,0.5]];portConstraint=eastwest;top=0;left=0;right=0;bottom=0;" vertex="1" parent="bGLQNSZzRs6PAlF2FX4R-97">
          <mxGeometry y="90" width="180" height="30" as="geometry" />
        </mxCell>
        <mxCell id="bGLQNSZzRs6PAlF2FX4R-108" style="shape=partialRectangle;connectable=0;fillColor=none;top=0;left=0;bottom=0;right=0;editable=1;overflow=hidden;" vertex="1" parent="bGLQNSZzRs6PAlF2FX4R-107">
          <mxGeometry width="30" height="30" as="geometry">
            <mxRectangle width="30" height="30" as="alternateBounds" />
          </mxGeometry>
        </mxCell>
        <mxCell id="bGLQNSZzRs6PAlF2FX4R-109" value="club_info" style="shape=partialRectangle;connectable=0;fillColor=none;top=0;left=0;bottom=0;right=0;align=left;spacingLeft=6;overflow=hidden;" vertex="1" parent="bGLQNSZzRs6PAlF2FX4R-107">
          <mxGeometry x="30" width="150" height="30" as="geometry">
            <mxRectangle width="150" height="30" as="alternateBounds" />
          </mxGeometry>
        </mxCell>
        <mxCell id="bGLQNSZzRs6PAlF2FX4R-122" value="user_club" style="shape=table;startSize=30;container=1;collapsible=1;childLayout=tableLayout;fixedRows=1;rowLines=0;fontStyle=1;align=center;resizeLast=1;" vertex="1" parent="1">
          <mxGeometry x="1100" y="-275.5" width="180" height="160" as="geometry">
            <mxRectangle x="890" y="-275.5" width="60" height="30" as="alternateBounds" />
          </mxGeometry>
        </mxCell>
        <mxCell id="bGLQNSZzRs6PAlF2FX4R-123" value="" style="shape=tableRow;horizontal=0;startSize=0;swimlaneHead=0;swimlaneBody=0;fillColor=none;collapsible=0;dropTarget=0;points=[[0,0.5],[1,0.5]];portConstraint=eastwest;top=0;left=0;right=0;bottom=1;" vertex="1" parent="bGLQNSZzRs6PAlF2FX4R-122">
          <mxGeometry y="30" width="180" height="30" as="geometry" />
        </mxCell>
        <mxCell id="bGLQNSZzRs6PAlF2FX4R-124" value="" style="shape=partialRectangle;connectable=0;fillColor=none;top=0;left=0;bottom=0;right=0;fontStyle=1;overflow=hidden;" vertex="1" parent="bGLQNSZzRs6PAlF2FX4R-123">
          <mxGeometry width="30" height="30" as="geometry">
            <mxRectangle width="30" height="30" as="alternateBounds" />
          </mxGeometry>
        </mxCell>
        <mxCell id="bGLQNSZzRs6PAlF2FX4R-125" value="id" style="shape=partialRectangle;connectable=0;fillColor=none;top=0;left=0;bottom=0;right=0;align=left;spacingLeft=6;fontStyle=5;overflow=hidden;" vertex="1" parent="bGLQNSZzRs6PAlF2FX4R-123">
          <mxGeometry x="30" width="150" height="30" as="geometry">
            <mxRectangle width="150" height="30" as="alternateBounds" />
          </mxGeometry>
        </mxCell>
        <mxCell id="bGLQNSZzRs6PAlF2FX4R-126" style="shape=tableRow;horizontal=0;startSize=0;swimlaneHead=0;swimlaneBody=0;fillColor=none;collapsible=0;dropTarget=0;points=[[0,0.5],[1,0.5]];portConstraint=eastwest;top=0;left=0;right=0;bottom=0;" vertex="1" parent="bGLQNSZzRs6PAlF2FX4R-122">
          <mxGeometry y="60" width="180" height="30" as="geometry" />
        </mxCell>
        <mxCell id="bGLQNSZzRs6PAlF2FX4R-127" style="shape=partialRectangle;connectable=0;fillColor=none;top=0;left=0;bottom=0;right=0;editable=1;overflow=hidden;" vertex="1" parent="bGLQNSZzRs6PAlF2FX4R-126">
          <mxGeometry width="30" height="30" as="geometry">
            <mxRectangle width="30" height="30" as="alternateBounds" />
          </mxGeometry>
        </mxCell>
        <mxCell id="bGLQNSZzRs6PAlF2FX4R-128" value="user_id" style="shape=partialRectangle;connectable=0;fillColor=none;top=0;left=0;bottom=0;right=0;align=left;spacingLeft=6;overflow=hidden;" vertex="1" parent="bGLQNSZzRs6PAlF2FX4R-126">
          <mxGeometry x="30" width="150" height="30" as="geometry">
            <mxRectangle width="150" height="30" as="alternateBounds" />
          </mxGeometry>
        </mxCell>
        <mxCell id="bGLQNSZzRs6PAlF2FX4R-129" style="shape=tableRow;horizontal=0;startSize=0;swimlaneHead=0;swimlaneBody=0;fillColor=none;collapsible=0;dropTarget=0;points=[[0,0.5],[1,0.5]];portConstraint=eastwest;top=0;left=0;right=0;bottom=0;" vertex="1" parent="bGLQNSZzRs6PAlF2FX4R-122">
          <mxGeometry y="90" width="180" height="30" as="geometry" />
        </mxCell>
        <mxCell id="bGLQNSZzRs6PAlF2FX4R-130" style="shape=partialRectangle;connectable=0;fillColor=none;top=0;left=0;bottom=0;right=0;editable=1;overflow=hidden;" vertex="1" parent="bGLQNSZzRs6PAlF2FX4R-129">
          <mxGeometry width="30" height="30" as="geometry">
            <mxRectangle width="30" height="30" as="alternateBounds" />
          </mxGeometry>
        </mxCell>
        <mxCell id="bGLQNSZzRs6PAlF2FX4R-131" value="rank_id" style="shape=partialRectangle;connectable=0;fillColor=none;top=0;left=0;bottom=0;right=0;align=left;spacingLeft=6;overflow=hidden;" vertex="1" parent="bGLQNSZzRs6PAlF2FX4R-129">
          <mxGeometry x="30" width="150" height="30" as="geometry">
            <mxRectangle width="150" height="30" as="alternateBounds" />
          </mxGeometry>
        </mxCell>
        <mxCell id="bGLQNSZzRs6PAlF2FX4R-149" style="shape=tableRow;horizontal=0;startSize=0;swimlaneHead=0;swimlaneBody=0;fillColor=none;collapsible=0;dropTarget=0;points=[[0,0.5],[1,0.5]];portConstraint=eastwest;top=0;left=0;right=0;bottom=0;" vertex="1" parent="bGLQNSZzRs6PAlF2FX4R-122">
          <mxGeometry y="120" width="180" height="30" as="geometry" />
        </mxCell>
        <mxCell id="bGLQNSZzRs6PAlF2FX4R-150" style="shape=partialRectangle;connectable=0;fillColor=none;top=0;left=0;bottom=0;right=0;editable=1;overflow=hidden;" vertex="1" parent="bGLQNSZzRs6PAlF2FX4R-149">
          <mxGeometry width="30" height="30" as="geometry">
            <mxRectangle width="30" height="30" as="alternateBounds" />
          </mxGeometry>
        </mxCell>
        <mxCell id="bGLQNSZzRs6PAlF2FX4R-151" value="club_id" style="shape=partialRectangle;connectable=0;fillColor=none;top=0;left=0;bottom=0;right=0;align=left;spacingLeft=6;overflow=hidden;" vertex="1" parent="bGLQNSZzRs6PAlF2FX4R-149">
          <mxGeometry x="30" width="150" height="30" as="geometry">
            <mxRectangle width="150" height="30" as="alternateBounds" />
          </mxGeometry>
        </mxCell>
        <mxCell id="bGLQNSZzRs6PAlF2FX4R-133" style="edgeStyle=orthogonalEdgeStyle;rounded=0;orthogonalLoop=1;jettySize=auto;html=1;exitX=0;exitY=0.5;exitDx=0;exitDy=0;entryX=1;entryY=0.5;entryDx=0;entryDy=0;" edge="1" parent="1" source="bGLQNSZzRs6PAlF2FX4R-98" target="bGLQNSZzRs6PAlF2FX4R-149">
          <mxGeometry relative="1" as="geometry" />
        </mxCell>
        <mxCell id="bGLQNSZzRs6PAlF2FX4R-134" style="edgeStyle=orthogonalEdgeStyle;rounded=0;orthogonalLoop=1;jettySize=auto;html=1;exitX=1;exitY=0.5;exitDx=0;exitDy=0;" edge="1" parent="1" source="bGLQNSZzRs6PAlF2FX4R-70" target="bGLQNSZzRs6PAlF2FX4R-126">
          <mxGeometry relative="1" as="geometry" />
        </mxCell>
        <mxCell id="bGLQNSZzRs6PAlF2FX4R-135" style="edgeStyle=orthogonalEdgeStyle;rounded=0;orthogonalLoop=1;jettySize=auto;html=1;exitX=0;exitY=0.5;exitDx=0;exitDy=0;entryX=0;entryY=0.5;entryDx=0;entryDy=0;" edge="1" parent="1" source="bGLQNSZzRs6PAlF2FX4R-63" target="bGLQNSZzRs6PAlF2FX4R-94">
          <mxGeometry relative="1" as="geometry" />
        </mxCell>
        <mxCell id="bGLQNSZzRs6PAlF2FX4R-136" value="place" style="shape=table;startSize=30;container=1;collapsible=1;childLayout=tableLayout;fixedRows=1;rowLines=0;fontStyle=1;align=center;resizeLast=1;" vertex="1" parent="1">
          <mxGeometry x="1375" y="140" width="180" height="130" as="geometry">
            <mxRectangle x="890" y="-275.5" width="60" height="30" as="alternateBounds" />
          </mxGeometry>
        </mxCell>
        <mxCell id="bGLQNSZzRs6PAlF2FX4R-137" value="" style="shape=tableRow;horizontal=0;startSize=0;swimlaneHead=0;swimlaneBody=0;fillColor=none;collapsible=0;dropTarget=0;points=[[0,0.5],[1,0.5]];portConstraint=eastwest;top=0;left=0;right=0;bottom=1;" vertex="1" parent="bGLQNSZzRs6PAlF2FX4R-136">
          <mxGeometry y="30" width="180" height="30" as="geometry" />
        </mxCell>
        <mxCell id="bGLQNSZzRs6PAlF2FX4R-138" value="PK" style="shape=partialRectangle;connectable=0;fillColor=none;top=0;left=0;bottom=0;right=0;fontStyle=1;overflow=hidden;" vertex="1" parent="bGLQNSZzRs6PAlF2FX4R-137">
          <mxGeometry width="30" height="30" as="geometry">
            <mxRectangle width="30" height="30" as="alternateBounds" />
          </mxGeometry>
        </mxCell>
        <mxCell id="bGLQNSZzRs6PAlF2FX4R-139" value="place_id" style="shape=partialRectangle;connectable=0;fillColor=none;top=0;left=0;bottom=0;right=0;align=left;spacingLeft=6;fontStyle=5;overflow=hidden;" vertex="1" parent="bGLQNSZzRs6PAlF2FX4R-137">
          <mxGeometry x="30" width="150" height="30" as="geometry">
            <mxRectangle width="150" height="30" as="alternateBounds" />
          </mxGeometry>
        </mxCell>
        <mxCell id="bGLQNSZzRs6PAlF2FX4R-140" style="shape=tableRow;horizontal=0;startSize=0;swimlaneHead=0;swimlaneBody=0;fillColor=none;collapsible=0;dropTarget=0;points=[[0,0.5],[1,0.5]];portConstraint=eastwest;top=0;left=0;right=0;bottom=0;" vertex="1" parent="bGLQNSZzRs6PAlF2FX4R-136">
          <mxGeometry y="60" width="180" height="30" as="geometry" />
        </mxCell>
        <mxCell id="bGLQNSZzRs6PAlF2FX4R-141" style="shape=partialRectangle;connectable=0;fillColor=none;top=0;left=0;bottom=0;right=0;editable=1;overflow=hidden;" vertex="1" parent="bGLQNSZzRs6PAlF2FX4R-140">
          <mxGeometry width="30" height="30" as="geometry">
            <mxRectangle width="30" height="30" as="alternateBounds" />
          </mxGeometry>
        </mxCell>
        <mxCell id="bGLQNSZzRs6PAlF2FX4R-142" value="place_name" style="shape=partialRectangle;connectable=0;fillColor=none;top=0;left=0;bottom=0;right=0;align=left;spacingLeft=6;overflow=hidden;" vertex="1" parent="bGLQNSZzRs6PAlF2FX4R-140">
          <mxGeometry x="30" width="150" height="30" as="geometry">
            <mxRectangle width="150" height="30" as="alternateBounds" />
          </mxGeometry>
        </mxCell>
        <mxCell id="bGLQNSZzRs6PAlF2FX4R-143" style="shape=tableRow;horizontal=0;startSize=0;swimlaneHead=0;swimlaneBody=0;fillColor=none;collapsible=0;dropTarget=0;points=[[0,0.5],[1,0.5]];portConstraint=eastwest;top=0;left=0;right=0;bottom=0;" vertex="1" parent="bGLQNSZzRs6PAlF2FX4R-136">
          <mxGeometry y="90" width="180" height="30" as="geometry" />
        </mxCell>
        <mxCell id="bGLQNSZzRs6PAlF2FX4R-144" style="shape=partialRectangle;connectable=0;fillColor=none;top=0;left=0;bottom=0;right=0;editable=1;overflow=hidden;" vertex="1" parent="bGLQNSZzRs6PAlF2FX4R-143">
          <mxGeometry width="30" height="30" as="geometry">
            <mxRectangle width="30" height="30" as="alternateBounds" />
          </mxGeometry>
        </mxCell>
        <mxCell id="bGLQNSZzRs6PAlF2FX4R-145" value="place_limit" style="shape=partialRectangle;connectable=0;fillColor=none;top=0;left=0;bottom=0;right=0;align=left;spacingLeft=6;overflow=hidden;" vertex="1" parent="bGLQNSZzRs6PAlF2FX4R-143">
          <mxGeometry x="30" width="150" height="30" as="geometry">
            <mxRectangle width="150" height="30" as="alternateBounds" />
          </mxGeometry>
        </mxCell>
        <mxCell id="bGLQNSZzRs6PAlF2FX4R-152" style="edgeStyle=orthogonalEdgeStyle;rounded=0;orthogonalLoop=1;jettySize=auto;html=1;entryX=1;entryY=0.5;entryDx=0;entryDy=0;" edge="1" parent="1" source="bGLQNSZzRs6PAlF2FX4R-63" target="bGLQNSZzRs6PAlF2FX4R-129">
          <mxGeometry relative="1" as="geometry" />
        </mxCell>
        <mxCell id="bGLQNSZzRs6PAlF2FX4R-153" value="events" style="shape=table;startSize=30;container=1;collapsible=1;childLayout=tableLayout;fixedRows=1;rowLines=0;fontStyle=1;align=center;resizeLast=1;" vertex="1" parent="1">
          <mxGeometry x="990" y="140" width="180" height="280" as="geometry">
            <mxRectangle x="890" y="-275.5" width="60" height="30" as="alternateBounds" />
          </mxGeometry>
        </mxCell>
        <mxCell id="bGLQNSZzRs6PAlF2FX4R-154" value="" style="shape=tableRow;horizontal=0;startSize=0;swimlaneHead=0;swimlaneBody=0;fillColor=none;collapsible=0;dropTarget=0;points=[[0,0.5],[1,0.5]];portConstraint=eastwest;top=0;left=0;right=0;bottom=1;" vertex="1" parent="bGLQNSZzRs6PAlF2FX4R-153">
          <mxGeometry y="30" width="180" height="30" as="geometry" />
        </mxCell>
        <mxCell id="bGLQNSZzRs6PAlF2FX4R-155" value="PK" style="shape=partialRectangle;connectable=0;fillColor=none;top=0;left=0;bottom=0;right=0;fontStyle=1;overflow=hidden;" vertex="1" parent="bGLQNSZzRs6PAlF2FX4R-154">
          <mxGeometry width="30" height="30" as="geometry">
            <mxRectangle width="30" height="30" as="alternateBounds" />
          </mxGeometry>
        </mxCell>
        <mxCell id="bGLQNSZzRs6PAlF2FX4R-156" value="events_id" style="shape=partialRectangle;connectable=0;fillColor=none;top=0;left=0;bottom=0;right=0;align=left;spacingLeft=6;fontStyle=5;overflow=hidden;" vertex="1" parent="bGLQNSZzRs6PAlF2FX4R-154">
          <mxGeometry x="30" width="150" height="30" as="geometry">
            <mxRectangle width="150" height="30" as="alternateBounds" />
          </mxGeometry>
        </mxCell>
        <mxCell id="bGLQNSZzRs6PAlF2FX4R-157" style="shape=tableRow;horizontal=0;startSize=0;swimlaneHead=0;swimlaneBody=0;fillColor=none;collapsible=0;dropTarget=0;points=[[0,0.5],[1,0.5]];portConstraint=eastwest;top=0;left=0;right=0;bottom=0;" vertex="1" parent="bGLQNSZzRs6PAlF2FX4R-153">
          <mxGeometry y="60" width="180" height="30" as="geometry" />
        </mxCell>
        <mxCell id="bGLQNSZzRs6PAlF2FX4R-158" style="shape=partialRectangle;connectable=0;fillColor=none;top=0;left=0;bottom=0;right=0;editable=1;overflow=hidden;" vertex="1" parent="bGLQNSZzRs6PAlF2FX4R-157">
          <mxGeometry width="30" height="30" as="geometry">
            <mxRectangle width="30" height="30" as="alternateBounds" />
          </mxGeometry>
        </mxCell>
        <mxCell id="bGLQNSZzRs6PAlF2FX4R-159" value="date" style="shape=partialRectangle;connectable=0;fillColor=none;top=0;left=0;bottom=0;right=0;align=left;spacingLeft=6;overflow=hidden;" vertex="1" parent="bGLQNSZzRs6PAlF2FX4R-157">
          <mxGeometry x="30" width="150" height="30" as="geometry">
            <mxRectangle width="150" height="30" as="alternateBounds" />
          </mxGeometry>
        </mxCell>
        <mxCell id="bGLQNSZzRs6PAlF2FX4R-160" style="shape=tableRow;horizontal=0;startSize=0;swimlaneHead=0;swimlaneBody=0;fillColor=none;collapsible=0;dropTarget=0;points=[[0,0.5],[1,0.5]];portConstraint=eastwest;top=0;left=0;right=0;bottom=0;" vertex="1" parent="bGLQNSZzRs6PAlF2FX4R-153">
          <mxGeometry y="90" width="180" height="30" as="geometry" />
        </mxCell>
        <mxCell id="bGLQNSZzRs6PAlF2FX4R-161" style="shape=partialRectangle;connectable=0;fillColor=none;top=0;left=0;bottom=0;right=0;editable=1;overflow=hidden;" vertex="1" parent="bGLQNSZzRs6PAlF2FX4R-160">
          <mxGeometry width="30" height="30" as="geometry">
            <mxRectangle width="30" height="30" as="alternateBounds" />
          </mxGeometry>
        </mxCell>
        <mxCell id="bGLQNSZzRs6PAlF2FX4R-162" value="place_id" style="shape=partialRectangle;connectable=0;fillColor=none;top=0;left=0;bottom=0;right=0;align=left;spacingLeft=6;overflow=hidden;" vertex="1" parent="bGLQNSZzRs6PAlF2FX4R-160">
          <mxGeometry x="30" width="150" height="30" as="geometry">
            <mxRectangle width="150" height="30" as="alternateBounds" />
          </mxGeometry>
        </mxCell>
        <mxCell id="bGLQNSZzRs6PAlF2FX4R-163" style="shape=tableRow;horizontal=0;startSize=0;swimlaneHead=0;swimlaneBody=0;fillColor=none;collapsible=0;dropTarget=0;points=[[0,0.5],[1,0.5]];portConstraint=eastwest;top=0;left=0;right=0;bottom=0;" vertex="1" parent="bGLQNSZzRs6PAlF2FX4R-153">
          <mxGeometry y="120" width="180" height="30" as="geometry" />
        </mxCell>
        <mxCell id="bGLQNSZzRs6PAlF2FX4R-164" style="shape=partialRectangle;connectable=0;fillColor=none;top=0;left=0;bottom=0;right=0;editable=1;overflow=hidden;" vertex="1" parent="bGLQNSZzRs6PAlF2FX4R-163">
          <mxGeometry width="30" height="30" as="geometry">
            <mxRectangle width="30" height="30" as="alternateBounds" />
          </mxGeometry>
        </mxCell>
        <mxCell id="bGLQNSZzRs6PAlF2FX4R-165" value="time" style="shape=partialRectangle;connectable=0;fillColor=none;top=0;left=0;bottom=0;right=0;align=left;spacingLeft=6;overflow=hidden;" vertex="1" parent="bGLQNSZzRs6PAlF2FX4R-163">
          <mxGeometry x="30" width="150" height="30" as="geometry">
            <mxRectangle width="150" height="30" as="alternateBounds" />
          </mxGeometry>
        </mxCell>
        <mxCell id="bGLQNSZzRs6PAlF2FX4R-166" style="shape=tableRow;horizontal=0;startSize=0;swimlaneHead=0;swimlaneBody=0;fillColor=none;collapsible=0;dropTarget=0;points=[[0,0.5],[1,0.5]];portConstraint=eastwest;top=0;left=0;right=0;bottom=0;" vertex="1" parent="bGLQNSZzRs6PAlF2FX4R-153">
          <mxGeometry y="150" width="180" height="30" as="geometry" />
        </mxCell>
        <mxCell id="bGLQNSZzRs6PAlF2FX4R-167" style="shape=partialRectangle;connectable=0;fillColor=none;top=0;left=0;bottom=0;right=0;editable=1;overflow=hidden;" vertex="1" parent="bGLQNSZzRs6PAlF2FX4R-166">
          <mxGeometry width="30" height="30" as="geometry">
            <mxRectangle width="30" height="30" as="alternateBounds" />
          </mxGeometry>
        </mxCell>
        <mxCell id="bGLQNSZzRs6PAlF2FX4R-168" value="trener_id" style="shape=partialRectangle;connectable=0;fillColor=none;top=0;left=0;bottom=0;right=0;align=left;spacingLeft=6;overflow=hidden;" vertex="1" parent="bGLQNSZzRs6PAlF2FX4R-166">
          <mxGeometry x="30" width="150" height="30" as="geometry">
            <mxRectangle width="150" height="30" as="alternateBounds" />
          </mxGeometry>
        </mxCell>
        <mxCell id="bGLQNSZzRs6PAlF2FX4R-174" style="shape=tableRow;horizontal=0;startSize=0;swimlaneHead=0;swimlaneBody=0;fillColor=none;collapsible=0;dropTarget=0;points=[[0,0.5],[1,0.5]];portConstraint=eastwest;top=0;left=0;right=0;bottom=0;" vertex="1" parent="bGLQNSZzRs6PAlF2FX4R-153">
          <mxGeometry y="180" width="180" height="30" as="geometry" />
        </mxCell>
        <mxCell id="bGLQNSZzRs6PAlF2FX4R-175" style="shape=partialRectangle;connectable=0;fillColor=none;top=0;left=0;bottom=0;right=0;editable=1;overflow=hidden;" vertex="1" parent="bGLQNSZzRs6PAlF2FX4R-174">
          <mxGeometry width="30" height="30" as="geometry">
            <mxRectangle width="30" height="30" as="alternateBounds" />
          </mxGeometry>
        </mxCell>
        <mxCell id="bGLQNSZzRs6PAlF2FX4R-176" value="category_id" style="shape=partialRectangle;connectable=0;fillColor=none;top=0;left=0;bottom=0;right=0;align=left;spacingLeft=6;overflow=hidden;" vertex="1" parent="bGLQNSZzRs6PAlF2FX4R-174">
          <mxGeometry x="30" width="150" height="30" as="geometry">
            <mxRectangle width="150" height="30" as="alternateBounds" />
          </mxGeometry>
        </mxCell>
        <mxCell id="bGLQNSZzRs6PAlF2FX4R-171" style="shape=tableRow;horizontal=0;startSize=0;swimlaneHead=0;swimlaneBody=0;fillColor=none;collapsible=0;dropTarget=0;points=[[0,0.5],[1,0.5]];portConstraint=eastwest;top=0;left=0;right=0;bottom=0;" vertex="1" parent="bGLQNSZzRs6PAlF2FX4R-153">
          <mxGeometry y="210" width="180" height="30" as="geometry" />
        </mxCell>
        <mxCell id="bGLQNSZzRs6PAlF2FX4R-172" style="shape=partialRectangle;connectable=0;fillColor=none;top=0;left=0;bottom=0;right=0;editable=1;overflow=hidden;" vertex="1" parent="bGLQNSZzRs6PAlF2FX4R-171">
          <mxGeometry width="30" height="30" as="geometry">
            <mxRectangle width="30" height="30" as="alternateBounds" />
          </mxGeometry>
        </mxCell>
        <mxCell id="bGLQNSZzRs6PAlF2FX4R-173" value="club_id" style="shape=partialRectangle;connectable=0;fillColor=none;top=0;left=0;bottom=0;right=0;align=left;spacingLeft=6;overflow=hidden;" vertex="1" parent="bGLQNSZzRs6PAlF2FX4R-171">
          <mxGeometry x="30" width="150" height="30" as="geometry">
            <mxRectangle width="150" height="30" as="alternateBounds" />
          </mxGeometry>
        </mxCell>
        <mxCell id="bGLQNSZzRs6PAlF2FX4R-201" style="shape=tableRow;horizontal=0;startSize=0;swimlaneHead=0;swimlaneBody=0;fillColor=none;collapsible=0;dropTarget=0;points=[[0,0.5],[1,0.5]];portConstraint=eastwest;top=0;left=0;right=0;bottom=0;" vertex="1" parent="bGLQNSZzRs6PAlF2FX4R-153">
          <mxGeometry y="240" width="180" height="30" as="geometry" />
        </mxCell>
        <mxCell id="bGLQNSZzRs6PAlF2FX4R-202" style="shape=partialRectangle;connectable=0;fillColor=none;top=0;left=0;bottom=0;right=0;editable=1;overflow=hidden;" vertex="1" parent="bGLQNSZzRs6PAlF2FX4R-201">
          <mxGeometry width="30" height="30" as="geometry">
            <mxRectangle width="30" height="30" as="alternateBounds" />
          </mxGeometry>
        </mxCell>
        <mxCell id="bGLQNSZzRs6PAlF2FX4R-203" value="comment" style="shape=partialRectangle;connectable=0;fillColor=none;top=0;left=0;bottom=0;right=0;align=left;spacingLeft=6;overflow=hidden;" vertex="1" parent="bGLQNSZzRs6PAlF2FX4R-201">
          <mxGeometry x="30" width="150" height="30" as="geometry">
            <mxRectangle width="150" height="30" as="alternateBounds" />
          </mxGeometry>
        </mxCell>
        <mxCell id="bGLQNSZzRs6PAlF2FX4R-169" style="edgeStyle=orthogonalEdgeStyle;rounded=0;orthogonalLoop=1;jettySize=auto;html=1;exitX=0;exitY=0.5;exitDx=0;exitDy=0;entryX=1;entryY=0.5;entryDx=0;entryDy=0;" edge="1" parent="1" source="bGLQNSZzRs6PAlF2FX4R-137" target="bGLQNSZzRs6PAlF2FX4R-160">
          <mxGeometry relative="1" as="geometry" />
        </mxCell>
        <mxCell id="bGLQNSZzRs6PAlF2FX4R-170" style="edgeStyle=orthogonalEdgeStyle;rounded=0;orthogonalLoop=1;jettySize=auto;html=1;entryX=0;entryY=0.5;entryDx=0;entryDy=0;" edge="1" parent="1" source="bGLQNSZzRs6PAlF2FX4R-70" target="bGLQNSZzRs6PAlF2FX4R-166">
          <mxGeometry relative="1" as="geometry" />
        </mxCell>
        <mxCell id="bGLQNSZzRs6PAlF2FX4R-177" value="category" style="shape=table;startSize=30;container=1;collapsible=1;childLayout=tableLayout;fixedRows=1;rowLines=0;fontStyle=1;align=center;resizeLast=1;" vertex="1" parent="1">
          <mxGeometry x="1375" y="290" width="180" height="130" as="geometry">
            <mxRectangle x="890" y="-275.5" width="60" height="30" as="alternateBounds" />
          </mxGeometry>
        </mxCell>
        <mxCell id="bGLQNSZzRs6PAlF2FX4R-178" value="" style="shape=tableRow;horizontal=0;startSize=0;swimlaneHead=0;swimlaneBody=0;fillColor=none;collapsible=0;dropTarget=0;points=[[0,0.5],[1,0.5]];portConstraint=eastwest;top=0;left=0;right=0;bottom=1;" vertex="1" parent="bGLQNSZzRs6PAlF2FX4R-177">
          <mxGeometry y="30" width="180" height="30" as="geometry" />
        </mxCell>
        <mxCell id="bGLQNSZzRs6PAlF2FX4R-179" value="PK" style="shape=partialRectangle;connectable=0;fillColor=none;top=0;left=0;bottom=0;right=0;fontStyle=1;overflow=hidden;" vertex="1" parent="bGLQNSZzRs6PAlF2FX4R-178">
          <mxGeometry width="30" height="30" as="geometry">
            <mxRectangle width="30" height="30" as="alternateBounds" />
          </mxGeometry>
        </mxCell>
        <mxCell id="bGLQNSZzRs6PAlF2FX4R-180" value="category_id" style="shape=partialRectangle;connectable=0;fillColor=none;top=0;left=0;bottom=0;right=0;align=left;spacingLeft=6;fontStyle=5;overflow=hidden;" vertex="1" parent="bGLQNSZzRs6PAlF2FX4R-178">
          <mxGeometry x="30" width="150" height="30" as="geometry">
            <mxRectangle width="150" height="30" as="alternateBounds" />
          </mxGeometry>
        </mxCell>
        <mxCell id="bGLQNSZzRs6PAlF2FX4R-181" style="shape=tableRow;horizontal=0;startSize=0;swimlaneHead=0;swimlaneBody=0;fillColor=none;collapsible=0;dropTarget=0;points=[[0,0.5],[1,0.5]];portConstraint=eastwest;top=0;left=0;right=0;bottom=0;" vertex="1" parent="bGLQNSZzRs6PAlF2FX4R-177">
          <mxGeometry y="60" width="180" height="30" as="geometry" />
        </mxCell>
        <mxCell id="bGLQNSZzRs6PAlF2FX4R-182" style="shape=partialRectangle;connectable=0;fillColor=none;top=0;left=0;bottom=0;right=0;editable=1;overflow=hidden;" vertex="1" parent="bGLQNSZzRs6PAlF2FX4R-181">
          <mxGeometry width="30" height="30" as="geometry">
            <mxRectangle width="30" height="30" as="alternateBounds" />
          </mxGeometry>
        </mxCell>
        <mxCell id="bGLQNSZzRs6PAlF2FX4R-183" value="category_name" style="shape=partialRectangle;connectable=0;fillColor=none;top=0;left=0;bottom=0;right=0;align=left;spacingLeft=6;overflow=hidden;" vertex="1" parent="bGLQNSZzRs6PAlF2FX4R-181">
          <mxGeometry x="30" width="150" height="30" as="geometry">
            <mxRectangle width="150" height="30" as="alternateBounds" />
          </mxGeometry>
        </mxCell>
        <mxCell id="bGLQNSZzRs6PAlF2FX4R-184" style="shape=tableRow;horizontal=0;startSize=0;swimlaneHead=0;swimlaneBody=0;fillColor=none;collapsible=0;dropTarget=0;points=[[0,0.5],[1,0.5]];portConstraint=eastwest;top=0;left=0;right=0;bottom=0;" vertex="1" parent="bGLQNSZzRs6PAlF2FX4R-177">
          <mxGeometry y="90" width="180" height="30" as="geometry" />
        </mxCell>
        <mxCell id="bGLQNSZzRs6PAlF2FX4R-185" style="shape=partialRectangle;connectable=0;fillColor=none;top=0;left=0;bottom=0;right=0;editable=1;overflow=hidden;" vertex="1" parent="bGLQNSZzRs6PAlF2FX4R-184">
          <mxGeometry width="30" height="30" as="geometry">
            <mxRectangle width="30" height="30" as="alternateBounds" />
          </mxGeometry>
        </mxCell>
        <mxCell id="bGLQNSZzRs6PAlF2FX4R-186" value="" style="shape=partialRectangle;connectable=0;fillColor=none;top=0;left=0;bottom=0;right=0;align=left;spacingLeft=6;overflow=hidden;" vertex="1" parent="bGLQNSZzRs6PAlF2FX4R-184">
          <mxGeometry x="30" width="150" height="30" as="geometry">
            <mxRectangle width="150" height="30" as="alternateBounds" />
          </mxGeometry>
        </mxCell>
        <mxCell id="bGLQNSZzRs6PAlF2FX4R-187" style="edgeStyle=orthogonalEdgeStyle;rounded=0;orthogonalLoop=1;jettySize=auto;html=1;exitX=0;exitY=0.5;exitDx=0;exitDy=0;" edge="1" parent="1" source="bGLQNSZzRs6PAlF2FX4R-178" target="bGLQNSZzRs6PAlF2FX4R-174">
          <mxGeometry relative="1" as="geometry" />
        </mxCell>
        <mxCell id="bGLQNSZzRs6PAlF2FX4R-188" value="user_events" style="shape=table;startSize=30;container=1;collapsible=1;childLayout=tableLayout;fixedRows=1;rowLines=0;fontStyle=1;align=center;resizeLast=1;" vertex="1" parent="1">
          <mxGeometry x="990" y="450" width="180" height="160" as="geometry">
            <mxRectangle x="890" y="-275.5" width="60" height="30" as="alternateBounds" />
          </mxGeometry>
        </mxCell>
        <mxCell id="bGLQNSZzRs6PAlF2FX4R-189" value="" style="shape=tableRow;horizontal=0;startSize=0;swimlaneHead=0;swimlaneBody=0;fillColor=none;collapsible=0;dropTarget=0;points=[[0,0.5],[1,0.5]];portConstraint=eastwest;top=0;left=0;right=0;bottom=1;" vertex="1" parent="bGLQNSZzRs6PAlF2FX4R-188">
          <mxGeometry y="30" width="180" height="30" as="geometry" />
        </mxCell>
        <mxCell id="bGLQNSZzRs6PAlF2FX4R-190" value="" style="shape=partialRectangle;connectable=0;fillColor=none;top=0;left=0;bottom=0;right=0;fontStyle=1;overflow=hidden;" vertex="1" parent="bGLQNSZzRs6PAlF2FX4R-189">
          <mxGeometry width="30" height="30" as="geometry">
            <mxRectangle width="30" height="30" as="alternateBounds" />
          </mxGeometry>
        </mxCell>
        <mxCell id="bGLQNSZzRs6PAlF2FX4R-191" value="id" style="shape=partialRectangle;connectable=0;fillColor=none;top=0;left=0;bottom=0;right=0;align=left;spacingLeft=6;fontStyle=5;overflow=hidden;" vertex="1" parent="bGLQNSZzRs6PAlF2FX4R-189">
          <mxGeometry x="30" width="150" height="30" as="geometry">
            <mxRectangle width="150" height="30" as="alternateBounds" />
          </mxGeometry>
        </mxCell>
        <mxCell id="bGLQNSZzRs6PAlF2FX4R-192" style="shape=tableRow;horizontal=0;startSize=0;swimlaneHead=0;swimlaneBody=0;fillColor=none;collapsible=0;dropTarget=0;points=[[0,0.5],[1,0.5]];portConstraint=eastwest;top=0;left=0;right=0;bottom=0;" vertex="1" parent="bGLQNSZzRs6PAlF2FX4R-188">
          <mxGeometry y="60" width="180" height="30" as="geometry" />
        </mxCell>
        <mxCell id="bGLQNSZzRs6PAlF2FX4R-193" style="shape=partialRectangle;connectable=0;fillColor=none;top=0;left=0;bottom=0;right=0;editable=1;overflow=hidden;" vertex="1" parent="bGLQNSZzRs6PAlF2FX4R-192">
          <mxGeometry width="30" height="30" as="geometry">
            <mxRectangle width="30" height="30" as="alternateBounds" />
          </mxGeometry>
        </mxCell>
        <mxCell id="bGLQNSZzRs6PAlF2FX4R-194" value="user_id" style="shape=partialRectangle;connectable=0;fillColor=none;top=0;left=0;bottom=0;right=0;align=left;spacingLeft=6;overflow=hidden;" vertex="1" parent="bGLQNSZzRs6PAlF2FX4R-192">
          <mxGeometry x="30" width="150" height="30" as="geometry">
            <mxRectangle width="150" height="30" as="alternateBounds" />
          </mxGeometry>
        </mxCell>
        <mxCell id="bGLQNSZzRs6PAlF2FX4R-195" style="shape=tableRow;horizontal=0;startSize=0;swimlaneHead=0;swimlaneBody=0;fillColor=none;collapsible=0;dropTarget=0;points=[[0,0.5],[1,0.5]];portConstraint=eastwest;top=0;left=0;right=0;bottom=0;" vertex="1" parent="bGLQNSZzRs6PAlF2FX4R-188">
          <mxGeometry y="90" width="180" height="30" as="geometry" />
        </mxCell>
        <mxCell id="bGLQNSZzRs6PAlF2FX4R-196" style="shape=partialRectangle;connectable=0;fillColor=none;top=0;left=0;bottom=0;right=0;editable=1;overflow=hidden;" vertex="1" parent="bGLQNSZzRs6PAlF2FX4R-195">
          <mxGeometry width="30" height="30" as="geometry">
            <mxRectangle width="30" height="30" as="alternateBounds" />
          </mxGeometry>
        </mxCell>
        <mxCell id="bGLQNSZzRs6PAlF2FX4R-197" value="events_id" style="shape=partialRectangle;connectable=0;fillColor=none;top=0;left=0;bottom=0;right=0;align=left;spacingLeft=6;overflow=hidden;" vertex="1" parent="bGLQNSZzRs6PAlF2FX4R-195">
          <mxGeometry x="30" width="150" height="30" as="geometry">
            <mxRectangle width="150" height="30" as="alternateBounds" />
          </mxGeometry>
        </mxCell>
        <mxCell id="bGLQNSZzRs6PAlF2FX4R-198" style="shape=tableRow;horizontal=0;startSize=0;swimlaneHead=0;swimlaneBody=0;fillColor=none;collapsible=0;dropTarget=0;points=[[0,0.5],[1,0.5]];portConstraint=eastwest;top=0;left=0;right=0;bottom=0;" vertex="1" parent="bGLQNSZzRs6PAlF2FX4R-188">
          <mxGeometry y="120" width="180" height="30" as="geometry" />
        </mxCell>
        <mxCell id="bGLQNSZzRs6PAlF2FX4R-199" style="shape=partialRectangle;connectable=0;fillColor=none;top=0;left=0;bottom=0;right=0;editable=1;overflow=hidden;" vertex="1" parent="bGLQNSZzRs6PAlF2FX4R-198">
          <mxGeometry width="30" height="30" as="geometry">
            <mxRectangle width="30" height="30" as="alternateBounds" />
          </mxGeometry>
        </mxCell>
        <mxCell id="bGLQNSZzRs6PAlF2FX4R-200" value="" style="shape=partialRectangle;connectable=0;fillColor=none;top=0;left=0;bottom=0;right=0;align=left;spacingLeft=6;overflow=hidden;" vertex="1" parent="bGLQNSZzRs6PAlF2FX4R-198">
          <mxGeometry x="30" width="150" height="30" as="geometry">
            <mxRectangle width="150" height="30" as="alternateBounds" />
          </mxGeometry>
        </mxCell>
        <mxCell id="bGLQNSZzRs6PAlF2FX4R-204" style="edgeStyle=orthogonalEdgeStyle;rounded=0;orthogonalLoop=1;jettySize=auto;html=1;entryX=1;entryY=0.5;entryDx=0;entryDy=0;" edge="1" parent="1" source="bGLQNSZzRs6PAlF2FX4R-98" target="bGLQNSZzRs6PAlF2FX4R-171">
          <mxGeometry relative="1" as="geometry">
            <Array as="points">
              <mxPoint x="1350" y="-230" />
              <mxPoint x="1350" y="365" />
            </Array>
          </mxGeometry>
        </mxCell>
        <mxCell id="bGLQNSZzRs6PAlF2FX4R-205" style="edgeStyle=orthogonalEdgeStyle;rounded=0;orthogonalLoop=1;jettySize=auto;html=1;exitX=0;exitY=0.5;exitDx=0;exitDy=0;entryX=0;entryY=0.5;entryDx=0;entryDy=0;" edge="1" parent="1" source="bGLQNSZzRs6PAlF2FX4R-154" target="bGLQNSZzRs6PAlF2FX4R-195">
          <mxGeometry relative="1" as="geometry">
            <Array as="points">
              <mxPoint x="930" y="185" />
              <mxPoint x="930" y="555" />
            </Array>
          </mxGeometry>
        </mxCell>
        <mxCell id="bGLQNSZzRs6PAlF2FX4R-206" style="edgeStyle=orthogonalEdgeStyle;rounded=0;orthogonalLoop=1;jettySize=auto;html=1;exitX=0;exitY=0.5;exitDx=0;exitDy=0;entryX=0;entryY=0.5;entryDx=0;entryDy=0;" edge="1" parent="1" source="bGLQNSZzRs6PAlF2FX4R-70" target="bGLQNSZzRs6PAlF2FX4R-192">
          <mxGeometry relative="1" as="geometry">
            <Array as="points">
              <mxPoint x="840" y="-230" />
              <mxPoint x="840" y="525" />
            </Array>
          </mxGeometry>
        </mxCell>
      </root>
    </mxGraphModel>
  </diagram>
</mxfile>
